<svg xmlns="http://www.w3.org/2000/svg" viewBox="0 0 80 35">
  <path d="M39.6926 15.9138 L41.3539 13.919 M42.6062 17.8572 L44.295 15.6837 M2.5 35 L77.5 35 C78.8807 35 80 33.8807 80 32.5 L80 2.5 C80 1.1193 78.8807 0 77.5 0 L2.5 0 C1.1193 0 0 1.1193 0 2.5 L0 32.5 C0 33.8807 1.1193 35 2.5 35 Z M48.8271 17.1185 L47.6393 16.9997 C46.8954 16.9254 46.1943 16.6166 45.6371 16.1181 L40.5781 11.5916 C39.1831 10.3435 36.9606 11.1849 36.7418 13.0439 C36.5376 14.7804 34.5536 15.6699 33.1213 14.6672 L31.4306 13.4837 C30.3613 12.8422 29.0009 13.6124 29.0009 14.8594 L29.0009 19.1871 C29.0009 21.1363 30.5811 22.7165 32.5303 22.7165 L48.5479 22.7165 C50.0976 22.7165 51.3539 21.4602 51.3539 19.9105 C51.3539 18.469 50.2615 17.262 48.8271 17.1185 Z" fill="none" stroke="currentColor" stroke-width="1.5" stroke-linecap="round" stroke-linejoin="round"/>
</svg>
